<?xml version="1.0" standalone="no"?>
<!DOCTYPE svg PUBLIC "-//W3C//DTD SVG 20010904//EN"
 "http://www.w3.org/TR/2001/REC-SVG-20010904/DTD/svg10.dtd">
<svg version="1.0" xmlns="http://www.w3.org/2000/svg"
 width="1024.000000pt" height="1024.000000pt" viewBox="0 0 1024.000000 1024.000000"
 preserveAspectRatio="xMidYMid meet">

<g transform="translate(0.000000,1024.000000) scale(0.100000,-0.100000)"
fill="#000000" stroke="none">
<path d="M2851 7237 c-7 -10 -12 -162 -13 -503 l-3 -489 -107 -65 -108 -64 0
-186 c0 -173 2 -188 24 -236 28 -60 84 -110 146 -128 l45 -13 3 -836 c2 -833
2 -836 23 -847 50 -28 49 -52 49 846 l0 834 28 6 c54 12 88 29 130 68 l42 39
48 -45 c56 -53 124 -74 207 -65 64 6 108 27 157 75 l38 36 32 -33 c100 -102
269 -106 374 -9 l45 41 37 -35 c49 -47 89 -66 155 -74 77 -9 157 16 213 68
l44 40 28 -29 c95 -103 273 -107 378 -11 l45 41 28 -30 c50 -55 106 -77 196
-77 69 -1 87 3 131 28 29 15 61 41 73 57 l22 29 31 -36 c51 -58 100 -78 193
-78 90 0 146 22 197 77 l28 29 43 -40 c55 -50 104 -67 192 -66 84 1 133 21
181 72 l36 37 44 -42 c45 -43 117 -73 179 -73 60 0 135 30 181 72 l44 41 44
-41 c105 -97 274 -92 375 9 l32 32 37 -35 c39 -38 91 -68 117 -68 13 0 15
-133 15 -1305 l0 -1305 -135 0 -135 0 0 833 c0 635 -3 836 -12 845 -9 9 -206
12 -824 12 -725 0 -814 -2 -828 -16 -14 -14 -16 -104 -16 -845 l0 -829 -935 0
c-740 0 -936 3 -940 13 -2 6 -8 139 -12 295 -9 334 -1 312 -128 312 l-82 0
-12 54 c-33 150 -184 222 -317 153 -60 -31 -114 -115 -114 -177 l0 -30 -103 0
-103 0 -23 94 c-12 51 -27 98 -34 105 -14 14 -161 15 -188 1 -21 -12 -25 -40
-7 -58 7 -7 40 -12 79 -12 56 0 69 -3 73 -17 3 -10 26 -106 50 -213 92 -396
116 -495 121 -507 3 -10 -31 -13 -149 -13 -85 0 -161 -3 -170 -6 -21 -8 -20
-51 2 -62 9 -4 231 -8 492 -8 261 1 1489 2 2728 4 2075 2 2253 3 2259 18 3 9
2 24 -4 33 -9 14 -41 16 -237 19 l-226 2 0 1300 0 1299 38 7 c96 17 179 89
202 175 6 21 9 115 8 211 l-3 173 -122 73 -123 74 0 482 c0 362 -3 485 -12
494 -19 19 -4521 17 -4537 -1z m4473 -489 c0 -235 -3 -430 -6 -433 -3 -3 -39
15 -80 40 l-75 45 -2035 0 -2035 0 -83 -50 c-45 -27 -86 -47 -91 -44 -5 3 -9
201 -9 440 l0 434 2208 -2 2207 -3 -1 -427z m-37 -509 c87 -50 162 -95 168
-100 5 -5 -950 -9 -2325 -9 -1283 0 -2330 3 -2326 7 4 4 75 49 159 100 l152
92 2007 1 2007 0 158 -91z m281 -189 c15 0 17 -246 2 -302 -13 -46 -77 -105
-125 -114 -61 -11 -139 0 -175 26 -41 29 -69 91 -70 152 0 44 -18 78 -40 78
-23 0 -40 -34 -40 -83 0 -60 -29 -118 -73 -151 -44 -32 -159 -34 -212 -4 -52
30 -85 93 -85 164 0 57 -16 80 -49 69 -23 -7 -28 -22 -34 -103 -7 -95 -62
-144 -167 -150 -61 -4 -75 -1 -114 22 -55 32 -86 91 -86 163 0 56 -16 79 -49
68 -16 -5 -21 -18 -27 -76 -11 -117 -62 -170 -169 -177 -122 -8 -193 52 -202
173 -3 36 -12 70 -19 76 -22 18 -54 1 -55 -29 -1 -30 -7 -76 -14 -109 -7 -32
-55 -84 -92 -99 -18 -8 -58 -14 -89 -14 -112 0 -183 72 -184 186 0 52 -12 74
-42 74 -24 0 -38 -31 -38 -87 -1 -103 -75 -173 -183 -173 -109 0 -177 56 -184
153 -6 80 -11 95 -34 102 -33 11 -49 -12 -49 -69 0 -121 -76 -190 -201 -184
-53 3 -73 9 -101 30 -47 36 -68 84 -68 152 0 50 -3 58 -25 68 -38 17 -55 -4
-55 -66 -1 -113 -60 -178 -170 -184 -124 -7 -188 46 -199 166 -7 75 -14 92
-40 92 -29 0 -41 -22 -41 -75 0 -74 -33 -134 -90 -163 -61 -31 -159 -28 -209
7 -43 31 -71 92 -71 156 0 69 -28 95 -64 59 -10 -10 -16 -34 -16 -67 -1 -107
-73 -177 -185 -177 -113 0 -174 59 -184 178 -4 47 -11 68 -23 76 -33 20 -52
-4 -59 -75 -11 -122 -59 -172 -174 -177 -83 -4 -123 13 -169 71 l-31 39 -3
154 -4 154 1979 2 c1605 3 2820 2 2901 -2z m-4438 -2343 c36 -24 64 -65 74
-109 l6 -28 -151 0 -151 0 7 33 c23 108 132 161 215 104z m-290 -240 c0 -27
17 -47 40 -47 18 0 44 46 35 61 -4 5 54 9 143 9 138 0 150 -1 146 -17 -3 -10
2 -27 9 -38 13 -17 18 -18 41 -7 18 8 26 19 26 37 0 24 2 25 65 25 59 0 65 -2
69 -22 3 -13 7 -134 10 -270 l4 -248 -323 0 -323 0 -22 98 c-12 53 -40 168
-61 256 -21 87 -39 165 -39 172 0 11 21 14 90 14 87 0 90 -1 90 -23z"/>
<path d="M2836 3307 c-17 -13 -17 -18 8 -133 17 -76 32 -123 43 -131 20 -15
339 -18 362 -4 7 5 24 60 37 122 28 138 27 124 8 143 -13 14 -48 16 -228 16
-160 0 -217 -3 -230 -13z m381 -119 c-5 -29 -11 -59 -13 -65 -2 -10 -38 -13
-133 -13 l-130 0 -10 38 c-5 20 -12 49 -15 65 l-6 27 158 0 159 0 -10 -52z"/>
<path d="M3190 5381 c-7 -14 -9 -260 -8 -757 3 -689 4 -738 21 -748 12 -8 22
-8 35 0 16 10 17 58 20 727 l2 716 198 3 c403 7 1559 8 1590 2 l32 -6 0 -1004
0 -1004 -737 -2 -738 -3 0 -30 0 -30 764 -3 c605 -2 766 0 773 10 4 7 8 488 8
1068 0 808 -3 1059 -12 1068 -9 9 -239 12 -975 12 -943 0 -963 0 -973 -19z"/>
<path d="M5392 5388 c-9 -9 -12 -90 -12 -303 0 -213 3 -294 12 -303 9 -9 206
-12 824 -12 447 0 819 3 828 6 14 5 16 42 16 309 0 267 -2 304 -16 309 -9 3
-381 6 -828 6 -618 0 -815 -3 -824 -12z m1596 -305 l2 -243 -765 0 -765 0 0
239 0 240 48 4 c26 2 369 3 762 3 l715 -1 3 -242z"/>
<path d="M4001 4537 c-402 -403 -423 -428 -361 -435 21 -2 89 60 418 384 340
335 393 390 390 413 -2 19 -9 27 -28 29 -21 2 -88 -60 -419 -391z"/>
<path d="M4157 4382 c-214 -214 -258 -263 -255 -283 8 -58 36 -37 306 228 145
142 263 263 262 270 0 15 -28 43 -43 43 -7 0 -128 -116 -270 -258z"/>
</g>
</svg>
